<?xml version="1.0" standalone="no"?>
<!DOCTYPE svg PUBLIC "-//W3C//DTD SVG 20010904//EN"
 "http://www.w3.org/TR/2001/REC-SVG-20010904/DTD/svg10.dtd">
<svg version="1.0" xmlns="http://www.w3.org/2000/svg"
 width="700.000000pt" height="700.000000pt" viewBox="0 0 700.000000 700.000000"
 preserveAspectRatio="xMidYMid meet">
<metadata>
Created by potrace 1.14, written by Peter Selinger 2001-2017
</metadata>
<g transform="translate(0.000000,700.000000) scale(0.100000,-0.100000)"
fill="#000000" stroke="none">
<path d="M2910 6994 c-503 -45 -906 -163 -1305 -382 -254 -140 -464 -298 -686
-521 -248 -248 -421 -484 -572 -779 -169 -330 -270 -657 -324 -1042 -21 -159
-24 -574 -4 -735 110 -900 557 -1665 1276 -2187 425 -309 920 -500 1475 -570
154 -19 571 -16 735 5 426 57 832 193 1173 395 228 134 230 135 291 135 31 0
72 -7 91 -15 23 -10 246 -228 650 -636 676 -684 660 -670 766 -659 28 3 67 13
85 22 44 23 391 370 415 415 24 47 25 153 1 200 -9 19 -293 315 -631 657 -675
683 -652 657 -644 771 4 52 13 74 85 193 225 376 355 740 424 1189 19 122 23
188 23 420 1 299 -7 396 -54 630 -80 399 -233 772 -455 1106 -508 765 -1292
1251 -2208 1370 -116 15 -511 26 -607 18z m620 -288 c516 -82 970 -278 1363
-588 130 -103 372 -345 467 -468 248 -322 424 -678 521 -1056 66 -262 83 -399
83 -704 1 -277 -5 -352 -50 -576 -136 -694 -542 -1325 -1124 -1745 -383 -277
-796 -442 -1295 -516 -167 -24 -569 -24 -745 0 -729 102 -1364 456 -1835 1022
-92 110 -242 337 -314 475 -312 597 -405 1271 -266 1930 232 1098 1108 1970
2205 2194 109 22 174 32 330 50 91 10 560 -3 660 -18z"/>
<path d="M3022 5659 c-789 -4 -1435 -9 -1436 -11 -2 -1 -204 -313 -450 -692
-396 -611 -445 -690 -433 -705 8 -9 560 -641 1227 -1406 667 -764 1215 -1391
1219 -1392 8 -2 2457 2846 2454 2855 -1 4 -214 312 -473 685 l-471 677 -102
-2 c-56 -1 -747 -5 -1535 -9z m-202 -285 c0 -16 -624 -784 -631 -777 -4 4 -71
175 -149 378 -78 204 -145 376 -147 382 -5 13 7 13 710 21 119 1 217 -1 217
-4z m1538 -11 c-6 -21 -279 -757 -283 -761 -2 -3 -616 743 -629 766 -6 9 88
12 455 12 434 0 461 -1 457 -17z m-879 -503 l341 -415 -553 -7 c-303 -5 -612
-7 -684 -5 l-133 2 338 422 c185 233 340 422 344 420 4 -1 160 -189 347 -417z
m1410 -38 c139 -200 251 -365 249 -367 -4 -5 -798 -12 -798 -8 0 3 249 675
269 727 7 17 15 25 20 20 4 -5 122 -172 260 -372z m-3103 -20 l141 -367 -141
-7 c-78 -5 -254 -7 -391 -5 l-251 2 245 377 c135 208 247 375 250 372 3 -3 69
-171 147 -372z m3293 -662 c-42 -52 -1494 -1738 -1496 -1736 -1 1 144 395 323
876 178 480 324 875 324 876 0 6 187 10 529 12 l344 2 -24 -30z m-1169 16 c0
-4 -734 -1980 -752 -2025 -13 -32 -20 -15 -400 976 -213 554 -390 1016 -394
1025 -6 17 18 18 367 21 838 6 1179 7 1179 3z m-1541 -872 c183 -476 331 -867
329 -869 -2 -1 -341 385 -754 859 l-751 861 296 5 c163 3 352 6 422 8 l125 2
333 -866z"/>
</g>
</svg>
